<?xml version="1.0" encoding="utf-8"?>
<!-- Generator: Adobe Illustrator 20.1.0, SVG Export Plug-In . SVG Version: 6.00 Build 0)  -->
<svg version="1.1" xmlns="http://www.w3.org/2000/svg" xmlns:xlink="http://www.w3.org/1999/xlink" x="0px" y="0px"
	 viewBox="0 0 32 48" style="enable-background:new 0 0 32 48;" xml:space="preserve">
<style type="text/css">
	.st0{fill:#0A66B1;}
	.st1{fill:#FFFFFF;}
	.st2{display:none;}
	.st3{display:inline;fill:#EC2027;}
	.st4{display:inline;fill:#00984A;}
	.st5{display:inline;fill:#0A66B1;}
</style>
<g id="Layer_2_copy_3">
	<path id="Ellipse_1_copy_3_3_" class="st0" d="M16,0c8.9,0,16,7.3,16,16.2C32,25.1,16.5,48,16.5,48S0,25.1,0,16.2C0,7.3,7.1,0,16,0
		z"/>
	<g>
		<g>
			<ellipse class="st1" cx="18.3" cy="7.4" rx="2.3" ry="2.3"/>
			<path class="st1" d="M14.7,9.9c0,0-1.5-1-2.9-0.2c-1.3,0.7-2.6,4.9-2.2,6.6c0.3,1.4,2.2,1.7,2.2,1.7L14.7,9.9z"/>
		</g>
		<path class="st1" d="M24.4,18.7l-3.6-2.8l-1.8-3c0,0,0,0,0,0c0-2.1-1-2.5-1-2.5c-0.4-0.2-1.9-0.9-2.5,0c-0.5,0.7-2.8,7.8-2.9,8.3
			c-0.1,0.5-0.1,1.4,0.1,2.8c0,0.2-0.5,4.6-0.7,5.2c-0.4,1.5-1.1,5.7-1.1,5.8c-0.3,1.3,1.7,1.8,2.1,0.4c0.2-0.6,1.5-4.5,2.9-9.2
			c0-0.1,2.7,4,2.8,4.1c0.1,0.1,1.2,4.9,1.2,5c0.5,1.5,2.4,1.3,2.1-0.6c-0.1-0.9-0.7-4.9-1.1-6.3c-0.2-0.6-3.2-5.7-3.2-5.9
			c0-0.2,0.5-2.6,0.7-3.8l1.4,1.5c0.2,0.1,3.8,2.2,3.8,2.2C24.3,20.5,25.3,19.4,24.4,18.7z"/>
	</g>
</g>
<g id="Layer_2_copy_2" class="st2">
	<path id="Ellipse_1_copy_3_2_" class="st3" d="M16,0c8.9,0,16,7.3,16,16.2C32,25.1,16.5,48,16.5,48S0,25.1,0,16.2C0,7.3,7.1,0,16,0
		z"/>
</g>
<g id="Layer_2_copy" class="st2">
	<path id="Ellipse_1_copy_3_1_" class="st4" d="M16,0c8.9,0,16,7.3,16,16.2C32,25.1,16.5,48,16.5,48S0,25.1,0,16.2C0,7.3,7.1,0,16,0
		z"/>
</g>
<g id="Layer_2" class="st2">
	<path id="Ellipse_1_copy_3" class="st5" d="M16,0c8.9,0,16,7.3,16,16.2C32,25.1,16.5,48,16.5,48S0,25.1,0,16.2C0,7.3,7.1,0,16,0z"
		/>
</g>
<g id="Layer_1">
	<g>
	</g>
	<g>
	</g>
	<g>
	</g>
	<g>
	</g>
	<g>
	</g>
	<g>
	</g>
</g>
</svg>
