<svg xmlns="http://www.w3.org/2000/svg" viewBox="0 0 32 48">
  <style>
    .st1{fill:#fff}
  </style>
  <g>
    <path
        d="M16 0c8.9 0 16 7.3 16 16.2C32 25.1 16.5 48 16.5 48S0 25.1 0 16.2C0 7.3 7.1 0 16 0z" fill="#00984a"/>
    <ellipse class="st1" cx="18.3" cy="7.4" rx="2.3" ry="2.3"/>
    <path class="st1"
          d="M14.7 9.9s-1.5-1-2.9-.2c-1.3.7-2.6 4.9-2.2 6.6.3 1.4 2.2 1.7 2.2 1.7l2.9-8.1zM24.4 18.7l-3.6-2.8-1.8-3c0-2.1-1-2.5-1-2.5-.4-.2-1.9-.9-2.5 0-.5.7-2.8 7.8-2.9 8.3-.1.5-.1 1.4.1 2.8 0 .2-.5 4.6-.7 5.2-.4 1.5-1.1 5.7-1.1 5.8-.3 1.3 1.7 1.8 2.1.4.2-.6 1.5-4.5 2.9-9.2 0-.1 2.7 4 2.8 4.1.1.1 1.2 4.9 1.2 5 .5 1.5 2.4 1.3 2.1-.6-.1-.9-.7-4.9-1.1-6.3-.2-.6-3.2-5.7-3.2-5.9 0-.2.5-2.6.7-3.8l1.4 1.5c.2.1 3.8 2.2 3.8 2.2.7.6 1.7-.5.8-1.2z"/>
  </g>
</svg>
