<?xml version="1.0" standalone="no"?>
<!DOCTYPE svg PUBLIC "-//W3C//DTD SVG 20010904//EN"
 "http://www.w3.org/TR/2001/REC-SVG-20010904/DTD/svg10.dtd">
<svg version="1.0" xmlns="http://www.w3.org/2000/svg"
 width="768.000000pt" height="768.000000pt" viewBox="0 0 768.000000 768.000000"
 preserveAspectRatio="xMidYMid meet">
<metadata>
Created by potrace 1.11, written by Peter Selinger 2001-2013
</metadata>
<g transform="translate(0.000000,768.000000) scale(0.100000,-0.100000)"
fill="#000000" stroke="none">
<path d="M3659 7676 c-2 -2 -35 -6 -74 -10 -100 -9 -136 -14 -170 -21 -16 -3
-43 -8 -60 -11 -16 -3 -46 -9 -65 -14 -19 -5 -49 -12 -67 -15 -97 -16 -352
-113 -520 -196 -101 -50 -183 -95 -183 -99 0 -4 -8 -10 -17 -14 -16 -5 -38
-18 -67 -39 -114 -81 -193 -141 -246 -186 -82 -71 -270 -260 -270 -272 0 -5
-4 -9 -8 -9 -4 0 -26 -24 -47 -52 -46 -60 -66 -85 -80 -102 -6 -6 -34 -47 -63
-91 -28 -44 -55 -85 -59 -91 -28 -37 -177 -331 -181 -359 -2 -11 -8 -25 -13
-31 -23 -28 -127 -378 -143 -484 -3 -19 -7 -44 -10 -55 -2 -11 -7 -42 -10 -70
-4 -27 -9 -66 -12 -85 -12 -78 -12 -407 1 -485 25 -156 55 -284 100 -430 14
-44 25 -83 25 -88 0 -4 7 -21 15 -37 8 -16 15 -32 14 -35 -1 -7 23 -72 83
-225 55 -138 92 -225 184 -430 14 -30 89 -183 168 -340 129 -258 189 -374 258
-497 72 -129 174 -310 183 -325 5 -9 17 -29 26 -45 22 -39 69 -119 173 -295
79 -134 215 -358 262 -430 24 -37 44 -72 44 -78 0 -5 5 -10 10 -10 6 0 10 -5
10 -11 0 -5 18 -37 40 -69 22 -32 40 -63 40 -69 0 -5 4 -11 8 -13 4 -1 36 -48
70 -103 34 -55 67 -107 72 -115 47 -68 180 -275 180 -280 0 -4 9 -15 20 -25
11 -10 20 -24 20 -32 0 -7 5 -13 10 -13 6 0 10 -7 10 -15 0 -8 5 -15 10 -15 6
0 10 -6 10 -14 0 -8 4 -16 8 -18 5 -1 25 -31 47 -65 21 -35 42 -63 46 -63 5 0
9 -7 9 -15 0 -8 5 -15 10 -15 6 0 9 -3 8 -7 -2 -7 66 -114 94 -148 5 -5 19
-26 31 -45 67 -101 302 -435 309 -438 4 -2 8 -11 8 -19 0 -13 3 -13 15 -3 8 7
21 23 28 36 6 12 64 102 127 198 175 267 269 415 309 481 19 33 38 62 41 65 3
3 11 17 19 33 8 15 18 27 23 27 4 0 8 4 8 9 0 7 273 463 330 551 5 8 19 31 30
50 11 19 25 42 30 50 38 59 90 152 90 160 0 6 5 10 10 10 6 0 10 4 10 9 0 13
82 155 92 159 4 2 8 12 8 22 0 10 4 20 8 22 4 1 25 35 47 73 21 39 47 86 58
105 97 173 207 374 207 381 0 4 3 9 8 11 4 2 20 30 37 63 16 33 42 81 57 107
15 27 24 48 20 48 -4 0 -2 4 3 8 15 11 47 72 38 72 -4 0 -3 4 3 8 6 4 26 39
45 77 19 39 37 72 42 73 4 2 7 12 7 22 0 9 7 23 15 30 8 7 15 16 15 21 0 5 38
87 85 183 46 96 105 221 130 277 25 55 54 120 65 143 10 22 37 86 60 141 22
55 45 109 50 120 31 66 192 515 185 515 -2 0 2 15 10 34 8 18 16 44 19 57 3
13 17 67 31 119 13 52 27 108 29 125 3 16 10 55 16 85 6 30 14 78 18 105 9 61
8 357 0 440 -16 148 -20 177 -33 235 -2 14 -10 50 -16 80 -12 62 -65 255 -78
285 -5 11 -27 67 -49 125 -45 117 -139 306 -198 396 -21 33 -44 70 -52 84 -7
14 -22 34 -33 46 -10 11 -19 25 -19 31 0 6 -3 13 -8 15 -6 2 -46 51 -84 103
-69 92 -270 292 -393 390 -28 21 -52 42 -55 45 -3 3 -59 41 -124 85 -121 80
-373 215 -401 215 -8 0 -15 5 -15 10 0 6 -6 10 -13 10 -8 0 -42 12 -78 26 -35
14 -75 28 -89 31 -13 2 -31 10 -39 16 -8 7 -17 11 -20 10 -3 -1 -24 2 -46 8
-22 6 -47 13 -55 15 -8 2 -42 10 -75 18 -33 8 -76 17 -96 20 -20 3 -42 7 -50
10 -8 3 -39 8 -69 11 -30 4 -66 9 -80 11 -32 6 -455 15 -461 10z"/>
</g>
</svg>
